<svg xmlns="http://www.w3.org/2000/svg" xmlns:xlink="http://www.w3.org/1999/xlink" viewBox="0 0 841.5 522.12" width="841.5" height="522.12"><defs><style>.cls-1{fill:#ffde87;}.cls-15,.cls-2,.cls-24,.cls-25,.cls-26,.cls-27,.cls-31,.cls-32,.cls-39{fill:none;}.cls-3{fill:#ffc837;}.cls-4{isolation:isolate;}.cls-5{fill:#fff4d7;}.cls-11,.cls-6{fill:#fff;}.cls-7{fill:#c2d1f2;}.cls-34,.cls-36,.cls-8{fill:#1258ff;}.cls-9{clip-path:url(#clip-path);}.cls-10,.cls-11{opacity:0.5;}.cls-12{clip-path:url(#clip-path-2);}.cls-13,.cls-14,.cls-20,.cls-40{fill:#0039b2;}.cls-14{opacity:0.1;}.cls-14,.cls-20,.cls-40{mix-blend-mode:multiply;}.cls-15,.cls-18,.cls-23,.cls-29,.cls-34,.cls-38,.cls-39{stroke:#000;}.cls-15,.cls-16,.cls-18,.cls-21,.cls-24,.cls-25,.cls-26,.cls-27,.cls-29,.cls-31,.cls-32,.cls-34,.cls-36,.cls-37,.cls-38,.cls-39{stroke-linecap:round;}.cls-15,.cls-16,.cls-18,.cls-21,.cls-24,.cls-25,.cls-26,.cls-27,.cls-29,.cls-31,.cls-32,.cls-34,.cls-36,.cls-37,.cls-38{stroke-linejoin:round;}.cls-15,.cls-16,.cls-23,.cls-26,.cls-27,.cls-29,.cls-31,.cls-32,.cls-34,.cls-36,.cls-37,.cls-38,.cls-39{stroke-width:1.5px;}.cls-16{fill:#777;stroke:#777;}.cls-17{fill:#ffddd1;}.cls-19{clip-path:url(#clip-path-3);}.cls-20{opacity:0.4;}.cls-21{fill:#e6e6e6;}.cls-21,.cls-24{stroke:#e6e6e6;}.cls-22{fill:#ffc6b2;}.cls-23,.cls-39{stroke-miterlimit:10;}.cls-24{stroke-width:4px;}.cls-25{stroke:#999;}.cls-26{stroke:#fff;}.cls-27{stroke:#bf9629;}.cls-28,.cls-37{fill:#719bff;}.cls-30{fill:#d1917b;}.cls-31,.cls-36{stroke:#1258ff;}.cls-32{stroke:#ffc837;}.cls-33{fill:#d0deff;}.cls-35{fill:#c9c9c9;}.cls-37{stroke:#719bff;}.cls-38,.cls-41{fill:#829ed9;}.cls-40{opacity:0.2;}</style><clipPath id="clip-path"><rect id="SVGID" class="cls-1" x="226.65" y="125.88" width="400.3" height="224.64"/></clipPath><clipPath id="clip-path-2"><rect class="cls-2" x="226.65" y="65.17" width="400.3" height="346.81" rx="10"/></clipPath><clipPath id="clip-path-3"><path class="cls-3" d="M192.19,440.88c-16.18,0-48.95,37.86-48.95,37.86L151.86,492s24-10.34,36.41-18.39,13.8-16.29,13.8-20.13S200.13,440.88,192.19,440.88Z"/></clipPath></defs><title>Asset 10 (2)</title><g class="cls-4"><g id="Layer_2" data-name="Layer 2"><g id="Colour_2" data-name="Colour 2"><path class="cls-5" d="M750.11,173.54c30.4,46.74,0,177-72.44,230.49-77.84,57.5-156.47,73.15-250.88,70-184.17-6.21-334.19-115.74-341-247.42C78.3,80.16,202.07-15.47,395.29,2.07,499,11.48,544.77,76.3,595.72,105.78,677.67,153.2,729.08,141.22,750.11,173.54Z"/><rect class="cls-3" x="233.98" y="65.17" width="400.3" height="346.81" rx="7.33"/><path class="cls-6" d="M626.94,72.5v53.38H226.65V72.5A7.33,7.33,0,0,1,234,65.17H619.61A7.33,7.33,0,0,1,626.94,72.5Z"/><path class="cls-6" d="M226.65,350.53h400.3a0,0,0,0,1,0,0V402a10,10,0,0,1-10,10H236.65a10,10,0,0,1-10-10V350.53A0,0,0,0,1,226.65,350.53Z"/><circle class="cls-7" cx="363.32" cy="96.82" r="6.4"/><circle class="cls-7" cx="386.08" cy="96.82" r="6.4"/><path class="cls-7" d="M336.93,87.85H261.34a9,9,0,0,0,0,17.93h75.59a9,9,0,1,0,0-17.93Z"/><circle class="cls-8" cx="269.88" cy="379.97" r="17.79"/><polygon class="cls-6" points="276.51 379.97 266.01 373.91 266.01 386.04 276.51 379.97"/><rect class="cls-7" x="302.92" y="376.08" width="283.32" height="7.8" rx="3.9"/><path class="cls-8" d="M306.45,376.08h126.1a0,0,0,0,1,0,0v7.8a0,0,0,0,1,0,0H306.45a3.53,3.53,0,0,1-3.53-3.53v-.74A3.53,3.53,0,0,1,306.45,376.08Z"/><rect id="SVGID-2" data-name="SVGID" class="cls-1" x="226.65" y="125.88" width="400.3" height="224.64"/><g class="cls-9"><g class="cls-10"><path class="cls-6" d="M627.17,171.72a83.82,83.82,0,1,0-10,127.08l-41.42-41.41-15,15L543.59,255.3l15-15.05L545.58,227.2c-14.85-14.86-14.21-31.91-.67-45.45a129.22,129.22,0,0,1,14.42-12.11l14.59,14.59-7.48,7.47c-7.36,7.36-5.09,14.23-.4,18.91l11.12,11.12,16.44-16.44,14.5,19.76-13.81,13.81,41.42,41.42A83.85,83.85,0,0,0,627.17,171.72Z"/></g><path class="cls-11" d="M348.38,171.72a83.82,83.82,0,1,1-118.54,0A83.81,83.81,0,0,1,348.38,171.72ZM309.52,273.1c26.29-26.28,18.88-62.44,0-81.31-.62-.63-1.24-1.25-1.86-1.81a41.37,41.37,0,0,0-.27-14.55,41,41,0,0,1-6,10.46,20.15,20.15,0,0,0-1.63-14.2,40.69,40.69,0,0,1-5.6,12.54,20.22,20.22,0,0,0-14.93,34.49,18.3,18.3,0,0,0,3.64,2.88,57.32,57.32,0,0,1-44.39,14.52A20.2,20.2,0,0,0,262,250.73a19.83,19.83,0,0,1-8.24,4.68l.18.18a20.25,20.25,0,0,0,25.49,2.55,19.81,19.81,0,0,1-6.23,6.7,20.2,20.2,0,0,0,23.27-3.41,40.6,40.6,0,0,1-11.65,23.85,35.12,35.12,0,0,1-3.62,3.2,56.25,56.25,0,0,0,28.3-15.38"/><path class="cls-11" d="M387.74,277.67c-10.73,10.73-12,12.12-16.05,16.53a41,41,0,0,0-7.75,11.43,28.47,28.47,0,0,0,0,23.11,41,41,0,0,0,7.75,11.43c4,4.41,5.32,5.8,16.05,16.53s12.13,12,16.53,16.05a41.25,41.25,0,0,0,11.43,7.76,28.58,28.58,0,0,0,23.11,0,41.25,41.25,0,0,0,11.43-7.76c4.41-4,5.8-5.32,16.53-16.05s12-12.12,16.05-16.53a41,41,0,0,0,7.76-11.43,28.58,28.58,0,0,0,0-23.11,41,41,0,0,0-7.76-11.43c-4-4.41-5.32-5.8-16.05-16.53s-12.12-12-16.53-16.05a41.25,41.25,0,0,0-11.43-7.76,28.58,28.58,0,0,0-23.11,0,41.25,41.25,0,0,0-11.43,7.76c-4.4,4-5.8,5.32-16.53,16.05Zm7.12,7.12c10.55-10.55,11.84-11.76,16.2-15.73a30.79,30.79,0,0,1,8.7-6,18.48,18.48,0,0,1,15,0,30.92,30.92,0,0,1,8.69,6c4.36,4,5.65,5.18,16.2,15.73s11.76,11.84,15.74,16.2a30.91,30.91,0,0,1,6,8.7,18.46,18.46,0,0,1,0,15,30.91,30.91,0,0,1-6,8.7c-4,4.36-5.19,5.65-15.74,16.2s-11.84,11.76-16.2,15.73a30.92,30.92,0,0,1-8.69,6,18.48,18.48,0,0,1-15,0,30.79,30.79,0,0,1-8.7-6c-4.36-4-5.65-5.18-16.2-15.73s-11.76-11.84-15.73-16.2a30.79,30.79,0,0,1-6-8.7,18.46,18.46,0,0,1,0-15,30.79,30.79,0,0,1,6-8.7c4-4.36,5.18-5.65,15.73-16.2"/><path class="cls-11" d="M440.43,330.36a18.63,18.63,0,1,1,0-26.35,18.63,18.63,0,0,1,0,26.35ZM407,296.89a28.7,28.7,0,1,0,40.58,0,28.7,28.7,0,0,0-40.58,0Z"/><path class="cls-11" d="M432,270.26a6.71,6.71,0,1,1-9.49,0,6.7,6.7,0,0,1,9.49,0Z"/><path class="cls-11" d="M387.74,114.84a55.88,55.88,0,1,0,79,0A55.88,55.88,0,0,0,387.74,114.84Zm48,64.89-8.46,8.46-25.38-25.38,8.46-8.46Zm-33.38-24.92a6.63,6.63,0,1,1,0-9.34A6.59,6.59,0,0,1,402.34,154.81Zm63-4.69-8.45,8.45-12.1-12.1c-7.95-7.95-15.75,1.19-8.47,8.47L448.41,167,440,175.5l-25.38-25.38,8.46-8.46,4.62,4.63c-3.15-10.53,9.58-24.27,23.47-10.38Z"/></g><g class="cls-12"><polygon class="cls-13" points="73.42 501.96 139.99 501.96 139.99 498.16 73.42 495.57 73.42 501.96"/><path class="cls-14" d="M385.49,427.28l-.58-13.52,11-24.57a7.32,7.32,0,0,0-1.68-8.33l-2.61-2.43-.9-.85a2.45,2.45,0,0,0-3.46.12l-30,32.06a3.23,3.23,0,0,0,.37,4.74l3.19,2.51h0c2.43,3.17,6.63,5.83,9.39,5.89l0,4.38-2.54,33.83C352.9,450.18,335.46,438,335.46,438l-9.67-9.47L317,403.11a7.3,7.3,0,0,0-6.92-4.94h-4.8a2.44,2.44,0,0,0-2.44,2.44v43.9a3.22,3.22,0,0,0,3.51,3.22l4-.35h0c3.95.66,8.83-.27,10.88-2.11l3,3.21S333,459,342.64,469.24c4,4.32,7.88,8.28,10.68,10.69-16.75-11-36.18-19.5-60.39-19.5-16.48,0-26.33,13.63-26.33,13.63-24.31,0-36.37-10.28-49.67-18.19a10.08,10.08,0,0,0,2.27-6.23c0-19.34-31.4-37.6-59.29-37.6-14,0-19.81,9-19.81,15.56a8.53,8.53,0,0,0,1.79,5.38A27.83,27.83,0,0,0,136,449.64a20.78,20.78,0,0,0,3.24,11.64c-6.95,6.79-16.38,17.7-16.38,27a11.23,11.23,0,0,0,1.55,5.72c-3.34,2.08-5.43,5.61-5.41,10.46l21.9,1,27.69,9s22.42,10.21,44.14,7a28,28,0,0,0,2.92-12.19H379c13.38,0,18.49-7.28,18.49-15.32,0-5.26-2.17-9.14-5.94-13.16C390.06,459.64,385.49,427.28,385.49,427.28ZM139.57,486.07l9.93-17.66a19.94,19.94,0,0,0,3.37.52,25.24,25.24,0,0,0,.42,2.68C145.37,479.37,139.57,486.07,139.57,486.07Zm31.82,15.06-16.83-4.62c3.74-1.7,8.7-4,13.8-6.57a15.43,15.43,0,0,0,6.79.31,103.44,103.44,0,0,0,9.19,13.51Z"/><path class="cls-14" d="M641.38,457.33h4.72c0-4.38,4.36-65.29,4.36-65.29s13.21-79.47,13.21-91.21a74,74,0,0,0-1.57-13c2.44-2.9,18.66-22.64,21.35-38.1,0-19.47-6.24-53.1-13.55-67.47l-12.7-4.79h0c-4.65-4.82-11.25-8.42-18.61-10.74l-.45-7.62a20,20,0,0,0,1.67-5.81h2.79a2.59,2.59,0,0,0,2.59-2.59v-5.53h0v-.42c0-.05,0-.09,0-.14a18.09,18.09,0,0,0-36.16,0,.68.68,0,0,0,0,.14v5.95a2.59,2.59,0,0,0,2.59,2.59h2.79a20,20,0,0,0,1.67,5.81l-.26,4.51a52.62,52.62,0,0,0-19.8,4.1l0,.18-13.67.34c-15.68,15.77-24.8,51-27.52,68.5a47.44,47.44,0,0,0,21.08,4c0,.44,0,.86,0,1.28v.15c.08,5.69.61,9.93.61,9.93h0A109.11,109.11,0,0,0,579,266.49v7.25h.6c-2.88,7-6.67,17.38-6.67,23.73,0,10.24,2.74,45.56,3.71,54.33.44,4,1.36,7.05,3,9.45a37.79,37.79,0,0,0,1.69,12.43l1.76,5.69A11.34,11.34,0,0,0,605.22,376V358.63a19.32,19.32,0,0,0,1.63-3.57c2.44-7.31,9.91-37.12,9.91-37.12l3.7,72.62S620,451,620,457.33h5.11v13.54c0,19-5,21.6-5,32.83l-.73,6.38h35.58l-.73-6.38c0-5.76-3.7-10.76-9.12-13.27-1.62-4.91-3.66-10.33-3.66-19.56Z"/></g><line class="cls-15" x1="0.75" y1="502.26" x2="28.57" y2="502.26"/><path class="cls-16" d="M310.23,390.84H309a2.45,2.45,0,0,0-2.45,2.44v43.9a3.23,3.23,0,0,0,3.51,3.22l4.05-.35Z"/><path class="cls-17" d="M143.24,478.74,156,456l-5.87-8.57S126.51,466.21,126.51,481c0,8.66,9.42,13.3,15,13.3A27.14,27.14,0,0,0,151.86,492Z"/><path class="cls-18" d="M139.64,442.31c.06-9.46,6.12-21.42,15.54-22.26a17.13,17.13,0,0,1,18.59,15.53c.84,9.42-1.55,24.11-10.88,25.69C147.85,463.8,139.57,454.05,139.64,442.31Z"/><path class="cls-3" d="M192.19,440.88c-16.18,0-48.95,37.86-48.95,37.86L151.86,492s24-10.34,36.41-18.39,13.8-16.29,13.8-20.13S200.13,440.88,192.19,440.88Z"/><g class="cls-19"><path class="cls-20" d="M158.28,452.31c-4.64,7.46-.07,21.82,8.7,27.91s19,1.74,21.42-4-.77-23.5-7.86-27.91S161.67,446.88,158.28,452.31Z"/></g><line class="cls-15" x1="143.24" y1="478.74" x2="156.03" y2="456.92"/><polygon class="cls-21" points="73.42 495.57 139.99 498.16 139.99 501.96 73.42 501.96 73.42 495.57"/><path class="cls-13" d="M395.66,485.28c.28-17.29-6.5-65.33-6.5-65.33h-15.3l-4.48,59.75Z"/><path class="cls-22" d="M157.25,416.86c-12.79,5.39-12.21,16.36-8.23,25.82,0,0-.47,3.63-2.29,5.49a1.79,1.79,0,0,0,1.39,3,11.56,11.56,0,0,0,3.18-.36s.68,2.08,2,5a6.39,6.39,0,0,0,8,2.87c6.38-2.66,12.1-9.13,11.54-15.78-.68-8,6.17-11.83,2.83-19.76S165.13,413.54,157.25,416.86Z"/><path class="cls-3" d="M270.26,466.73c-39.5,0-46.65-27.15-79.37-27.15-12.9,0-18.65,9.56-18.65,23.65S188,496.43,188,496.43l-12.94-2.63-2.82,13.38s22.41,10.21,44.13,7A28,28,0,0,0,219.29,502h51Z"/><path class="cls-18" d="M143.77,420.27c0-6.54,5.76-15.56,19.8-15.56,27.89,0,59.3,18.26,59.3,37.6,0,6.05-6.35,12.77-14.92,8.27-12.09-6.35-29.5-8.76-29.5,2.68,0,7.35-2.15,11.9-7.95,11.9-6.35,0-10.08-5.35-9.29-11.84.71-5.9,5.83-7.86,5.83-12.86C167,430.7,143.77,433.26,143.77,420.27Z"/><path class="cls-8" d="M270.26,466.73V502h112.4c13.37,0,18.48-7.28,18.48-15.33s-5.05-12.85-13.18-19.9c-11.79-10.23-48.84-36-48.84-36L328,441.15S348,464.87,357,472.6c-16.75-11-36.17-19.5-60.39-19.5C280.12,453.1,270.26,466.73,270.26,466.73Z"/><path class="cls-23" d="M339.12,430.7l-9.66-9.47-8.75-25.45a7.32,7.32,0,0,0-6.92-4.94h-3.56l.91,46.91a2,2,0,0,0,1.41,1.94c4.11,1.26,10.09.34,12.43-1.75l3,3.21Z"/><line class="cls-24" x1="73.42" y1="495.57" x2="55.28" y2="443.46"/><line class="cls-25" x1="78.11" y1="499.62" x2="86.67" y2="499.62"/><line class="cls-25" x1="93.74" y1="499.62" x2="98.02" y2="499.62"/><line class="cls-25" x1="105.64" y1="499.62" x2="109.92" y2="499.62"/><path class="cls-15" d="M218.51,495.66C215.66,484,207,470.85,207,470.85"/><path class="cls-22" d="M175.06,493.8,151,487.2l-11-2.44c-9.59-1.44-17.36,3-17.34,12.39l21.91,1.05,27.69,9Z"/><line class="cls-15" x1="175.06" y1="493.8" x2="188" y2="496.43"/><path class="cls-15" d="M281.75,473.68V462c4.72-3.55,14.06-5.89,20.36-3.94"/><circle class="cls-26" cx="318.99" cy="405.57" r="1.55"/><circle class="cls-26" cx="320.63" cy="410.59" r="1.55"/><circle class="cls-26" cx="322.39" cy="415.61" r="1.55"/><path class="cls-16" d="M395.29,371.1l-.9-.85a2.45,2.45,0,0,0-3.46.12l-30,32.06a3.22,3.22,0,0,0,.36,4.74l3.2,2.51Z"/><path class="cls-23" d="M389.16,420l-.59-13.52,11-24.57a7.31,7.31,0,0,0-1.68-8.33l-2.6-2.43L363.9,406a2.06,2.06,0,0,0-.29,2.38c2.15,3.72,7.14,7.14,10.27,7.21l0,4.38Z"/><circle class="cls-26" cx="391.62" cy="387.85" r="1.55"/><circle class="cls-26" cx="389.39" cy="392.63" r="1.55"/><circle class="cls-26" cx="387.24" cy="397.49" r="1.55"/><path class="cls-20" d="M219.29,502h7.2a62.32,62.32,0,0,0-18.7-29.79C215.45,485.3,219.29,494.27,219.29,502Z"/><path class="cls-15" d="M328,441.15s28.48,34.57,39.73,39.19"/><line class="cls-27" x1="267.47" y1="471.58" x2="260.65" y2="471.58"/><line class="cls-27" x1="267.47" y1="475.37" x2="260.65" y2="475.37"/><line class="cls-27" x1="267.47" y1="479.15" x2="260.65" y2="479.15"/><line class="cls-27" x1="267.47" y1="482.94" x2="260.65" y2="482.94"/><line class="cls-27" x1="267.47" y1="486.73" x2="260.65" y2="486.73"/><line class="cls-27" x1="267.47" y1="490.51" x2="260.65" y2="490.51"/><line class="cls-27" x1="267.47" y1="494.3" x2="260.65" y2="494.3"/><line class="cls-27" x1="267.47" y1="498.09" x2="260.65" y2="498.09"/><path class="cls-28" d="M128.87,311.38V375a5.13,5.13,0,0,0,5.13,5.13h22l9.81,9.82,9.82-9.82h22a5.13,5.13,0,0,0,5.13-5.13v-63.6a5.13,5.13,0,0,0-5.13-5.13H134A5.13,5.13,0,0,0,128.87,311.38Z"/><rect class="cls-8" x="145.86" y="338.04" width="10.38" height="22.13" rx="2.14"/><path class="cls-6" d="M173.17,339.38l1.57-5a11.9,11.9,0,0,0,.17-6.56l-.12-.45a4.84,4.84,0,0,0-4.68-3.62h-.69a.89.89,0,0,0-.89.89v6.62l-12.29,11.6v13.41l3.11,1.14a18.59,18.59,0,0,0,6.43,1.15h11.44a6.42,6.42,0,0,0,6.25-4.93l2.15-9a4.31,4.31,0,0,0-4.19-5.32Z"/><polygon class="cls-29" points="658.56 502.75 622.97 502.75 623.71 496.37 657.82 496.37 658.56 502.75"/><path class="cls-3" d="M585.67,334.84H606v40.43a11.34,11.34,0,0,1-11.33,11.34h0a11.33,11.33,0,0,1-10.82-8l-1.77-5.7a37.83,37.83,0,0,1-.67-20.08Z"/><rect class="cls-30" x="628.74" y="440.79" width="16.31" height="22.75"/><path class="cls-18" d="M586.4,259.16h74.05s6.88,22.6,6.88,34.34-13.2,91.21-13.2,91.21-4.37,60.91-4.37,65.29H623.64c0-6.33.48-66.77.48-66.77l-3.7-72.62S610,347,607.59,354.33,597.27,368.71,590,366.64c-8.38-2.37-11.64-6.8-12.61-15.57s-.78-50.69-.78-60.93S586.4,259.16,586.4,259.16Z"/><line class="cls-31" x1="635.71" y1="385.49" x2="644.88" y2="385.49"/><path class="cls-3" d="M645.05,463.54H628.74c0,19-5,21.6-5,32.83l14.5-7.73,12.5,4.62C650.71,483.73,645.05,478.94,645.05,463.54Z"/><path class="cls-3" d="M657.82,496.37c0-8.28-7.63-15-17.05-15s-17.06,6.72-17.06,15Z"/><path class="cls-15" d="M657.82,496.37H623.71c0-8.28,7.63-15,17.06-15"/><circle class="cls-15" cx="634.07" cy="468.83" r="1.3"/><circle class="cls-15" cx="634.07" cy="475.3" r="1.3"/><circle class="cls-15" cx="641.1" cy="468.83" r="1.3"/><circle class="cls-15" cx="641.1" cy="475.3" r="1.3"/><circle class="cls-15" cx="591.61" cy="370.5" r="1.3"/><circle class="cls-15" cx="598.64" cy="370.5" r="1.3"/><circle class="cls-32" cx="621.6" cy="265.53" r="1.86"/><path class="cls-31" d="M616.49,262.78v21.36c0,4.92,2.47,8.44,5.45,8.44"/><path class="cls-33" d="M633.23,159.69,612,162.47c-10.67,16-26.19,71.29-25.62,96.69h71.9c4.49-27.43-.14-74.71-7.52-91.89Z"/><path class="cls-8" d="M586,160.89c-15.68,15.77-24.8,51-27.52,68.5a47.4,47.4,0,0,0,21.07,4,114.74,114.74,0,0,0,3,25.78h26.43s-4.28-55.78,3.29-93.23c0,0,12.58-5.85,21.08-3.72,7.92,2,14.45,8.36,14.45,8.36,7.25,31.85,4.73,95.84,4.73,95.84s6.09,12.11,12.85,14.45c0,0,18.75-21.76,21.66-38.48,0-19.47-6.23-53.1-13.55-67.47l-40.33-15.22Z"/><path class="cls-28" d="M599.65,160.37c3.32,15.44,7.33,52.68,8.26,70.86.85-29.41,2.08-45.74,4.43-65.3,11.68-4.24,22.26-3.23,35.53,4.64,3,20.33,4.24,37.07,5,61.57,3.56-19.09,8-42,8-62C647.29,156.06,617.24,152.43,599.65,160.37Z"/><rect class="cls-28" x="582.62" y="259.16" width="26.43" height="7.25"/><polygon class="cls-28" points="652.6 266.41 656.64 259.16 652.78 259.16 652.6 266.41"/><path class="cls-20" d="M579.57,233.38s22.95-2.21,32.3-18c-7.58,23.3-31.68,29.32-31.68,29.32A101.84,101.84,0,0,1,579.57,233.38Z"/><path class="cls-15" d="M669.45,214.44v24.28s5.11-3,8.22-1.35"/><path class="cls-34" d="M585.59,232.14c10.88-2.15,17.15-5.86,24-13.23,2.81-3,3.54-5.32,1-11.26-1.49-3.53-4-6.47-6.41-6.1"/><path class="cls-15" d="M578.28,209.63a74.19,74.19,0,0,1,14.63-6"/><path class="cls-30" d="M631,162l-14.59,4.24,3.21,5a13.41,13.41,0,0,0,19.88,3.33l5.53-4.26-13.28-8.18A1.47,1.47,0,0,0,631,162Z"/><rect class="cls-3" x="601.57" y="178.98" width="35.49" height="19.21" rx="4" transform="translate(807.9 -430.73) rotate(90)"/><path class="cls-35" d="M613.4,173a1.49,1.49,0,0,0-1.49,1.49v3.39a1.49,1.49,0,1,0,3,0v-3.39A1.49,1.49,0,0,0,613.4,173Z"/><circle cx="613.4" cy="174.53" r="0.99"/><circle cx="613.4" cy="177.92" r="0.99"/><path class="cls-20" d="M609.71,190h11.57v8.59a2.45,2.45,0,0,1-2.45,2.45h0v2.32a2.93,2.93,0,0,1-2.93,2.93h-3.26a2.93,2.93,0,0,1-2.93-2.93Z"/><path class="cls-30" d="M602.46,205.62v2a5.54,5.54,0,0,0,5.53,5.53h0a5.54,5.54,0,0,0,5.53-5.53v-2.87h2.57a2.74,2.74,0,0,0,2.74-2.74v-.93h-6.38l1.8-2h2.9a4.13,4.13,0,0,0,4.13-4.14V190H608.21l-5.75,5.6Z"/><path class="cls-30" d="M602.46,205.62v2a5.54,5.54,0,0,0,5.53,5.53h0a5.54,5.54,0,0,0,5.53-5.53v-2.87h2.57a2.74,2.74,0,0,0,2.74-2.74v-.93h-6.38l1.8-2h2.9a4.13,4.13,0,0,0,4.13-4.14V190H608.21l-5.75,5.6Z"/><path class="cls-36" d="M616.2,134.82h3.11a0,0,0,0,1,0,0v11.12a0,0,0,0,1,0,0H616.2a3.53,3.53,0,0,1-3.53-3.53v-4.06A3.53,3.53,0,0,1,616.2,134.82Z"/><rect class="cls-37" x="615.99" y="134.82" width="3.32" height="11.12"/><path class="cls-36" d="M645.74,134.82h3.11a0,0,0,0,1,0,0v11.12a0,0,0,0,1,0,0h-3.11a3.53,3.53,0,0,1-3.53-3.53v-4.06A3.53,3.53,0,0,1,645.74,134.82Z" transform="translate(1291.07 280.77) rotate(180)"/><rect class="cls-37" x="642.21" y="134.82" width="3.32" height="11.12" transform="translate(1287.75 280.77) rotate(180)"/><polygon class="cls-30" points="642.92 170.84 618.81 167.3 620.28 142.11 641.25 142.11 642.92 170.84"/><path class="cls-20" d="M620,149.71a20.12,20.12,0,0,0,2.76,7.68,9.24,9.24,0,0,0,16.09,0h0a20.11,20.11,0,0,0,2.75-7.68l-.31-5.4h-21Z"/><path class="cls-30" d="M630.29,121.64a13.09,13.09,0,0,0-12.42,13.18v8.57a20.1,20.1,0,0,0,3.48,11.28h0a11.39,11.39,0,0,0,9.41,5h0a11.39,11.39,0,0,0,9.41-5h0a20,20,0,0,0,3.48-11.28v-8.88A12.88,12.88,0,0,0,630.29,121.64Z"/><path d="M630.29,121.64a13.09,13.09,0,0,0-12.42,13.18v2.3c0-1.94,5.77-3.51,12.89-3.51s12.89,1.57,12.89,3.51v-2.61A12.88,12.88,0,0,0,630.29,121.64Z"/><path class="cls-31" d="M612.67,137.83a18.1,18.1,0,0,1,36.19,0"/><path class="cls-20" d="M628,146.05a2.88,2.88,0,0,0,5.61,0,6.56,6.56,0,0,1-5.61,0Z"/><line class="cls-15" x1="652.6" y1="266.41" x2="663.13" y2="247.29"/><path class="cls-28" d="M489.26,162.81h63.6a5.13,5.13,0,0,0,5.13-5.13v-22l9.81-9.82L558,116.07v-22A5.13,5.13,0,0,0,552.86,89h-63.6a5.13,5.13,0,0,0-5.13,5.13v63.6A5.12,5.12,0,0,0,489.26,162.81Z"/><path class="cls-6" d="M538.65,121.1a9.59,9.59,0,0,0-17.45-5.49,9.59,9.59,0,1,0-15.34,11.48h0l12.87,16.07h0a3.12,3.12,0,0,0,4.92,0h0l12.87-16.07h0A9.51,9.51,0,0,0,538.65,121.1Z"/><line class="cls-38" x1="219.29" y1="502.26" x2="840.75" y2="502.26"/><line class="cls-38" x1="45.41" y1="502.26" x2="156.78" y2="502.26"/><line class="cls-39" x1="69.99" y1="440.57" x2="63.4" y2="440.57"/><line class="cls-39" x1="58.71" y1="435.88" x2="58.71" y2="429.29"/><line class="cls-39" x1="66.68" y1="432.6" x2="62.03" y2="437.25"/><line class="cls-39" x1="609.39" y1="159.69" x2="609.39" y2="166.28"/><line class="cls-39" x1="604.7" y1="170.96" x2="598.12" y2="170.96"/><line class="cls-39" x1="601.42" y1="162.99" x2="606.08" y2="167.65"/><path class="cls-40" d="M226.65,179.59H310a10,10,0,0,1,10,10v68.49a10,10,0,0,1-10,10H226.65a0,0,0,0,1,0,0V179.59A0,0,0,0,1,226.65,179.59Z"/><rect class="cls-3" x="136.92" y="172.26" width="183.12" height="88.49" rx="10"/><rect class="cls-6" x="133.25" y="172.26" width="183.12" height="88.49" rx="10"/><rect class="cls-41" x="147.97" y="197.49" width="41.99" height="23.62" rx="5" transform="translate(337.93 418.6) rotate(180)"/><path class="cls-41" d="M160.6,246.66h-1.27v-6h-2.07v-.92a2.39,2.39,0,0,0,1.46-.45,1.83,1.83,0,0,0,.74-1.16h1.14Z"/><path class="cls-41" d="M168.58,238.39l-.4,1.06a2.94,2.94,0,0,0-1.53-.37,2.74,2.74,0,0,0-2.11.86,3.35,3.35,0,0,0-.89,2.2,2.17,2.17,0,0,1,.87-.79,2.87,2.87,0,0,1,1.38-.32,2.93,2.93,0,0,1,2.12.78,2.83,2.83,0,0,1,.81,2.14,2.66,2.66,0,0,1-.92,2.12,3.34,3.34,0,0,1-2.25.79,3.19,3.19,0,0,1-2.35-1,4,4,0,0,1-1-3,5.14,5.14,0,0,1,1.24-3.65,4.11,4.11,0,0,1,3.16-1.33A3.2,3.2,0,0,1,168.58,238.39ZM163.83,244a1.7,1.7,0,0,0,.55,1.3,1.88,1.88,0,0,0,1.3.49,1.85,1.85,0,0,0,1.31-.49,1.88,1.88,0,0,0,0-2.62,1.85,1.85,0,0,0-1.31-.49,1.88,1.88,0,0,0-1.32.49A1.7,1.7,0,0,0,163.83,244Z"/><path class="cls-41" d="M170.56,241.82a.84.84,0,0,1-.26-.64.89.89,0,0,1,.26-.66.88.88,0,0,1,.65-.27.92.92,0,0,1,.92.93.85.85,0,0,1-.27.64.89.89,0,0,1-.65.27A.88.88,0,0,1,170.56,241.82Zm0,4.65a.91.91,0,0,1-.26-.65.92.92,0,0,1,.26-.65.88.88,0,0,1,.65-.27.92.92,0,0,1,.92.92.88.88,0,0,1-.27.65.92.92,0,0,1-.65.26A.91.91,0,0,1,170.57,246.47Z"/><path class="cls-41" d="M174.08,246.36l.42-1.07a2.89,2.89,0,0,0,1.56.41,2.76,2.76,0,0,0,2.2-.84,3.36,3.36,0,0,0,.77-2.19,2.14,2.14,0,0,1-.82.78,2.9,2.9,0,0,1-1.4.31,3.07,3.07,0,0,1-2.07-.77,2.65,2.65,0,0,1-.88-2.12,2.71,2.71,0,0,1,.93-2.12,3.19,3.19,0,0,1,2.22-.83,3.15,3.15,0,0,1,2.35,1,4,4,0,0,1,1,2.93,5.68,5.68,0,0,1-1.08,3.71,3.9,3.9,0,0,1-3.2,1.3,4.85,4.85,0,0,1-1.08-.14A3,3,0,0,1,174.08,246.36Zm4.78-5.51a1.69,1.69,0,0,0-.56-1.3,1.87,1.87,0,0,0-1.29-.5,1.89,1.89,0,0,0-1.3.5,1.84,1.84,0,0,0,0,2.62,1.88,1.88,0,0,0,1.3.48,1.86,1.86,0,0,0,1.3-.49A1.67,1.67,0,0,0,178.86,240.85Z"/><rect class="cls-7" x="209.94" y="197.49" width="41.99" height="23.62" rx="5" transform="translate(21.64 440.24) rotate(-90)"/><path class="cls-7" d="M219.76,246.36l.42-1.07a2.89,2.89,0,0,0,1.56.41,2.75,2.75,0,0,0,2.19-.84,3.31,3.31,0,0,0,.77-2.19,2.07,2.07,0,0,1-.82.78,2.86,2.86,0,0,1-1.39.31,3.05,3.05,0,0,1-2.07-.77,2.66,2.66,0,0,1-.89-2.12,2.71,2.71,0,0,1,.93-2.12,3.19,3.19,0,0,1,2.22-.83,3.15,3.15,0,0,1,2.35,1,4,4,0,0,1,1,2.93,5.68,5.68,0,0,1-1.08,3.71,3.88,3.88,0,0,1-3.19,1.3,4.86,4.86,0,0,1-1.09-.14A3,3,0,0,1,219.76,246.36Zm4.77-5.51a1.68,1.68,0,0,0-.55-1.3,1.89,1.89,0,0,0-1.3-.5,1.85,1.85,0,0,0-1.29.5,1.65,1.65,0,0,0-.55,1.3,1.7,1.7,0,0,0,.54,1.32,1.88,1.88,0,0,0,1.3.48,1.85,1.85,0,0,0,1.3-.49A1.67,1.67,0,0,0,224.53,240.85Z"/><path class="cls-7" d="M227.92,241.82a.88.88,0,0,1-.26-.64.93.93,0,0,1,.26-.66.88.88,0,0,1,.65-.27.92.92,0,0,1,.92.93.85.85,0,0,1-.27.64.89.89,0,0,1-.65.27A.88.88,0,0,1,227.92,241.82Zm0,4.65a.88.88,0,0,1-.27-.65.89.89,0,0,1,.27-.65.85.85,0,0,1,.64-.27.92.92,0,0,1,.93.92.88.88,0,0,1-.27.65.93.93,0,0,1-.66.26A.88.88,0,0,1,227.94,246.47Z"/><path class="cls-7" d="M234.16,246.66H232.9v-6h-2.07v-.92a2.41,2.41,0,0,0,1.46-.45,1.87,1.87,0,0,0,.74-1.16h1.13Z"/><path class="cls-7" d="M242.15,238.39l-.4,1.06a2.94,2.94,0,0,0-1.53-.37,2.76,2.76,0,0,0-2.12.86,3.35,3.35,0,0,0-.89,2.2,2.27,2.27,0,0,1,.88-.79,2.87,2.87,0,0,1,1.38-.32,3,3,0,0,1,2.12.78,2.83,2.83,0,0,1,.81,2.14,2.64,2.64,0,0,1-.93,2.12,3.3,3.3,0,0,1-2.24.79,3.19,3.19,0,0,1-2.35-1,4,4,0,0,1-1-3,5.19,5.19,0,0,1,1.24-3.65,4.13,4.13,0,0,1,3.17-1.33A3.23,3.23,0,0,1,242.15,238.39ZM237.4,244a1.66,1.66,0,0,0,.55,1.3,2,2,0,0,0,2.61,0,1.88,1.88,0,0,0,0-2.62,1.88,1.88,0,0,0-1.32-.49,1.85,1.85,0,0,0-1.31.49A1.67,1.67,0,0,0,237.4,244Z"/><rect class="cls-7" x="271.92" y="194.43" width="29.74" height="29.74" rx="5"/><path class="cls-7" d="M283.89,246.66h-1.27v-6h-2.07v-.92a2.39,2.39,0,0,0,1.46-.45,1.87,1.87,0,0,0,.74-1.16h1.14Z"/><path class="cls-7" d="M286.13,241.82a.84.84,0,0,1-.26-.64.89.89,0,0,1,.26-.66.86.86,0,0,1,.65-.27.92.92,0,0,1,.92.93.85.85,0,0,1-.27.64.89.89,0,0,1-.65.27A.86.86,0,0,1,286.13,241.82Zm0,4.65a.91.91,0,0,1-.26-.65.92.92,0,0,1,.26-.65.88.88,0,0,1,.65-.27.92.92,0,0,1,.92.92.88.88,0,0,1-.27.65.92.92,0,0,1-.65.26A.91.91,0,0,1,286.14,246.47Z"/><path class="cls-7" d="M292.37,246.66H291.1v-6H289v-.92a2.45,2.45,0,0,0,1.47-.45,1.91,1.91,0,0,0,.74-1.16h1.13Z"/></g></g></g></svg>